<svg width="60" height="60" viewBox="0 0 60 60" fill="none" xmlns="http://www.w3.org/2000/svg">
<path fill-rule="evenodd" clip-rule="evenodd" d="M13.9531 18.8373C13.9531 14.6116 17.4018 11.1629 21.6275 11.1629C22.7834 11.1629 23.7205 12.1 23.7205 13.2559C23.7205 14.4119 22.7834 15.349 21.6275 15.349C19.7137 15.349 18.1392 16.9235 18.1392 18.8373C18.1392 20.7511 19.7137 22.3257 21.6275 22.3257C23.5413 22.3257 25.1159 20.7511 25.1159 18.8373C25.1159 17.6814 26.053 16.7443 27.2089 16.7443C28.3648 16.7443 29.3019 17.6814 29.3019 18.8373C29.3019 23.063 25.8532 26.5117 21.6275 26.5117C17.4018 26.5117 13.9531 23.063 13.9531 18.8373Z" fill="black"/>
<path fill-rule="evenodd" clip-rule="evenodd" d="M57.9067 22.3257C59.0626 22.3257 59.9997 23.2627 59.9997 24.4187V38.3721C59.9997 45.5553 58.5759 51.128 54.8517 54.8519C51.1278 58.5761 45.5551 59.9999 38.3719 59.9999H21.6278C14.4447 59.9999 8.87197 58.5761 5.14789 54.8519C1.42381 51.128 0 45.5553 0 38.3721V32.7628C0 31.6069 0.937084 30.6698 2.09301 30.6698C3.24894 30.6698 4.18603 31.6069 4.18603 32.7628V38.3721C4.18603 45.1423 5.5529 49.337 8.10786 51.8921C10.6628 54.447 14.8575 55.8139 21.6278 55.8139H38.3719C45.1421 55.8139 49.3368 54.447 51.8919 51.8921C54.4468 49.337 55.8137 45.1423 55.8137 38.3721V24.4187C55.8137 23.2627 56.7508 22.3257 57.9067 22.3257Z" fill="black"/>
<path fill-rule="evenodd" clip-rule="evenodd" d="M5.14789 5.14789C8.87197 1.42381 14.4447 0 21.6278 0H32.7905C33.9464 0 34.8835 0.937084 34.8835 2.09301C34.8835 3.24894 33.9464 4.18603 32.7905 4.18603H21.6278C14.8575 4.18603 10.6628 5.5529 8.10786 8.10786C5.5529 10.6628 4.18603 14.8575 4.18603 21.6278C4.18603 22.7837 3.24894 23.7208 2.09301 23.7208C0.937084 23.7208 0 22.7837 0 21.6278C0 14.4447 1.42381 8.87197 5.14789 5.14789Z" fill="black"/>
<path fill-rule="evenodd" clip-rule="evenodd" d="M38.3721 10.4653C38.3721 9.30934 39.3092 8.37225 40.4651 8.37225H55.8138C56.9697 8.37225 57.9069 9.30934 57.9069 10.4653C57.9069 11.6212 56.9697 12.5583 55.8138 12.5583H40.4651C39.3092 12.5583 38.3721 11.6212 38.3721 10.4653Z" fill="black"/>
<path fill-rule="evenodd" clip-rule="evenodd" d="M48.1394 0.697876C49.2953 0.697876 50.2324 1.63496 50.2324 2.79089V18.1396C50.2324 19.2956 49.2953 20.2327 48.1394 20.2327C46.9835 20.2327 46.0464 19.2956 46.0464 18.1396V2.79089C46.0464 1.63496 46.9835 0.697876 48.1394 0.697876Z" fill="black"/>
<path fill-rule="evenodd" clip-rule="evenodd" d="M51.9937 32.983C50.6014 31.7872 48.2438 31.7872 46.8515 32.983L35.2423 42.9457C32.2811 45.4886 27.6059 45.4892 24.645 42.9457L24.6271 42.9304L23.716 42.1297C22.4646 41.0615 20.326 40.9306 18.8865 41.8962L5.12904 51.133C4.16935 51.7774 2.86903 51.5218 2.22469 50.5621C1.58035 49.6023 1.83597 48.3019 2.79569 47.6575L16.5538 38.4204C19.5205 36.43 23.7394 36.631 26.4519 38.9612L26.4695 38.9765L27.3804 39.7772C28.7738 40.9663 31.1249 40.9641 32.5147 39.7705L44.1239 29.8078C47.0851 27.2649 51.7604 27.2643 54.7213 29.8078L59.2701 33.7147C60.1469 34.4676 60.2471 35.789 59.4939 36.6661C58.741 37.543 57.4196 37.6432 56.5425 36.8899L51.9937 32.983Z" fill="black"/>
</svg>
