<svg width="76" height="73" viewBox="0 0 76 73" fill="none" xmlns="http://www.w3.org/2000/svg">
<path d="M27.7677 44.247C27.7484 44.152 27.7202 44.0585 27.6831 43.9694C27.646 43.8789 27.6 43.7928 27.5465 43.7126C27.4916 43.631 27.4293 43.5553 27.361 43.487C27.0166 43.1426 26.5045 42.9838 26.0221 43.0818C25.9271 43.1011 25.8336 43.1293 25.7445 43.1664C25.6539 43.2035 25.5679 43.2495 25.4877 43.3029C25.4061 43.3564 25.3304 43.4187 25.2621 43.487C25.1938 43.5553 25.1314 43.631 25.078 43.7126C25.0246 43.7928 24.9786 43.8789 24.9414 43.9694C24.9043 44.0585 24.8761 44.152 24.8568 44.247C24.8375 44.342 24.8271 44.44 24.8271 44.5365C24.8271 44.6329 24.8375 44.7309 24.8568 44.8274C24.8761 44.9209 24.9043 45.0144 24.9414 45.105C24.9786 45.194 25.0246 45.2801 25.078 45.3603C25.1314 45.4419 25.1938 45.5176 25.2621 45.5859C25.3304 45.6542 25.4061 45.7165 25.4877 45.7715C25.5679 45.8249 25.6539 45.8709 25.7445 45.908C25.8336 45.9451 25.9271 45.9733 26.0221 45.9926C26.1171 46.0119 26.215 46.0208 26.3115 46.0208C26.7019 46.0208 27.0849 45.862 27.361 45.5859C27.4293 45.5176 27.4916 45.4419 27.5465 45.3603C27.6 45.2801 27.646 45.194 27.6831 45.105C27.7202 45.0144 27.7484 44.9209 27.7677 44.8274C27.787 44.7309 27.7959 44.6329 27.7959 44.5365C27.7959 44.44 27.787 44.342 27.7677 44.247Z" fill="black"/>
<path d="M74.5156 69.8801H71.4409V54.0054V47.4958C71.4409 45.0457 69.4477 43.0525 66.9976 43.0525H64.4627V34.0718V28.4106C64.4627 25.9607 62.4695 23.9673 60.0194 23.9673H55.4626V19.6576C56.4809 19.4005 57.4449 18.8755 58.2399 18.0804C60.0673 16.2532 60.5266 13.4686 59.3827 11.1511L55.3093 2.89869C55.0592 2.39207 54.5432 2.0713 53.9783 2.0713C53.4133 2.0713 52.8973 2.39207 52.6472 2.89869L48.5738 11.1512C47.4299 13.4685 47.8892 16.2532 49.7166 18.0806C50.5117 18.8756 51.4756 19.4006 52.4939 19.6577V23.9675H39.4844V17.5864C40.5027 17.3293 41.4666 16.8043 42.2616 16.0093C44.0891 14.182 44.5482 11.3975 43.4045 9.07992L39.331 0.827391C39.0809 0.320773 38.565 0 38 0C37.435 0 36.9191 0.320773 36.669 0.827391L32.5955 9.08007C31.4518 11.3975 31.9111 14.182 33.7384 16.0093C34.5334 16.8043 35.4973 17.3293 36.5156 17.5864V23.9675H23.5061V19.6623C24.5481 19.3996 25.5038 18.8602 26.2834 18.0806C28.1108 16.2533 28.5701 13.4686 27.4262 11.1512L23.3528 2.89869C23.1027 2.39207 22.5867 2.0713 22.0217 2.0713C21.4568 2.0713 20.9408 2.39207 20.6907 2.89869L16.6173 11.1514C15.4736 13.4686 15.9328 16.2533 17.7601 18.0807C18.5397 18.8603 19.4953 19.3997 20.5374 19.6625V23.9676H15.9806C13.5305 23.9676 11.5373 25.9608 11.5373 28.4109V34.0723V43.0528H9.00244C6.55233 43.0528 4.55911 45.046 4.55911 47.4961V54.0057V69.8804H1.48438C0.664555 69.8804 0 70.5449 0 71.3647C0 72.1846 0.664555 72.8491 1.48438 72.8491H6.04348H69.9565H74.5156C75.3354 72.8491 76 72.1846 76 71.3647C76 70.5449 75.3354 69.8801 74.5156 69.8801ZM51.8158 15.9811C50.8885 15.0539 50.6556 13.641 51.236 12.465L53.9784 6.90917L56.7208 12.465C57.3012 13.641 57.0681 15.0539 56.141 15.9811C55.9351 16.187 55.7058 16.3548 55.4629 16.4896C54.5425 17.0005 53.4146 17.0005 52.4942 16.4896C52.251 16.355 52.0217 16.1871 51.8158 15.9811ZM35.8376 13.9099C34.9104 12.9828 34.6774 11.5698 35.2578 10.3939L38 4.83817L40.7424 10.394C41.3228 11.57 41.0897 12.9829 40.1626 13.9101C39.9567 14.116 39.7274 14.2838 39.4845 14.4186C38.5642 14.9295 37.4362 14.9295 36.5158 14.4186C36.2728 14.2837 36.0434 14.116 35.8376 13.9099ZM19.8593 15.9811C18.932 15.0539 18.6991 13.641 19.2795 12.465L22.0219 6.90917L24.7643 12.465C25.3447 13.6408 25.1116 15.0538 24.1845 15.9811C23.9786 16.187 23.7493 16.3548 23.5064 16.4896C22.5861 17.0005 21.4581 17.0005 20.5377 16.4896C20.2945 16.355 20.0652 16.1871 19.8593 15.9811ZM15.9806 26.9361H60.0195C60.8327 26.9361 61.4941 27.5975 61.4941 28.4106V33.071C60.8401 33.2764 60.1354 33.371 59.3039 33.371C57.0901 33.371 56.0798 32.6975 54.8009 31.8449C53.3772 30.8958 51.7637 29.8202 48.6511 29.8202C45.5387 29.8202 43.9252 30.8958 42.5017 31.8449C41.2227 32.6975 40.2126 33.371 37.999 33.371C35.7853 33.371 34.7752 32.6975 33.4964 31.8449C32.0729 30.8959 30.4595 29.8202 27.3471 29.8202C24.2348 29.8202 22.6214 30.8959 21.1979 31.8449C19.9191 32.6975 18.909 33.371 16.6957 33.371C15.8644 33.371 15.1601 33.2763 14.5062 33.0711V28.4106H14.5061C14.5061 27.5975 15.1676 26.9361 15.9806 26.9361ZM68.4721 69.8801H7.52786V55.6139C8.78988 55.846 9.59381 56.381 10.546 57.0159C11.9696 57.965 13.5829 59.0406 16.6955 59.0406C19.8078 59.0406 21.4212 57.9648 22.8447 57.0159C24.1235 56.1633 25.1336 55.4898 27.3469 55.4898C29.5604 55.4898 30.5707 56.1633 31.8495 57.0159C33.273 57.965 34.8864 59.0406 37.9988 59.0406C41.1114 59.0406 42.7248 57.9648 44.1483 57.0159C45.4272 56.1633 46.4373 55.4898 48.651 55.4898C50.8648 55.4898 51.875 56.1633 53.154 57.0159C54.5776 57.9648 56.191 59.0406 59.3037 59.0406C62.4163 59.0406 64.0299 57.9648 65.4535 57.0159C66.4059 56.381 67.21 55.8459 68.4721 55.6137V69.8801ZM68.4721 52.6109C66.2926 52.8884 64.9846 53.7603 63.8067 54.5456C62.5278 55.3982 61.5175 56.0717 59.3037 56.0717C57.09 56.0717 56.0798 55.3982 54.8007 54.5456C53.3771 53.5966 51.7636 52.5209 48.651 52.5209C45.5385 52.5209 43.925 53.5966 42.5015 54.5456C41.2226 55.3982 40.2125 56.0717 37.9988 56.0717C35.7852 56.0717 34.775 55.3982 33.4963 54.5456C32.0727 53.5965 30.4594 52.5209 27.3468 52.5209C24.2345 52.5209 22.6211 53.5966 21.1976 54.5456C19.9188 55.3982 18.9087 56.0717 16.6954 56.0717C14.4817 56.0717 13.4716 55.3982 12.1928 54.5456C11.015 53.7603 9.70722 52.8884 7.52786 52.6109V47.4957C7.52786 46.6826 8.18945 46.0211 9.00244 46.0211H20.3943C21.2141 46.0211 21.8786 45.3566 21.8786 44.5367C21.8786 43.7169 21.2141 43.0524 20.3943 43.0524H14.5061V36.1306C15.1892 36.2703 15.9109 36.3399 16.6955 36.3399C19.8078 36.3399 21.4212 35.2641 22.8447 34.3152C24.1235 33.4626 25.1336 32.7891 27.3469 32.7891C29.5606 32.7891 30.5707 33.4626 31.8495 34.3152C33.273 35.2641 34.8864 36.3399 37.9988 36.3399C41.1113 36.3399 42.7248 35.2641 44.1483 34.3152C45.4272 33.4626 46.4373 32.7891 48.651 32.7891C50.8648 32.7891 51.875 33.4626 53.154 34.3152C54.5776 35.2643 56.1912 36.3399 59.3037 36.3399C60.0887 36.3399 60.8107 36.2701 61.4939 36.1304V43.0525H32.2301C31.4103 43.0525 30.7457 43.7171 30.7457 44.5369C30.7457 45.3567 31.4103 46.0213 32.2301 46.0213H66.9976C67.8107 46.0213 68.4721 46.6828 68.4721 47.4958V52.6109Z" fill="black"/>
<path d="M14.4771 66.192C14.4579 66.097 14.4296 66.0035 14.3925 65.9144C14.3554 65.8254 14.3094 65.7393 14.256 65.6576C14.2011 65.5775 14.1402 65.5018 14.0704 65.432C14.0021 65.3637 13.9264 65.3029 13.8448 65.2479C13.7646 65.1945 13.6786 65.1485 13.5895 65.1114C13.5004 65.0743 13.4069 65.0461 13.3119 65.0268C12.8295 64.9303 12.3174 65.0876 11.9715 65.432C11.9032 65.5018 11.8409 65.5775 11.7875 65.6576C11.734 65.7393 11.688 65.8254 11.6509 65.9144C11.6138 66.0035 11.5856 66.097 11.5663 66.192C11.547 66.2885 11.5381 66.385 11.5381 66.4829C11.5381 66.5794 11.547 66.6759 11.5663 66.7724C11.5856 66.8674 11.6138 66.9609 11.6509 67.05C11.688 67.139 11.734 67.2251 11.7875 67.3068C11.8409 67.3869 11.9032 67.4626 11.9715 67.5324C12.2476 67.8085 12.6306 67.9673 13.0225 67.9673C13.1189 67.9673 13.2154 67.9569 13.3119 67.9376C13.4069 67.9183 13.5004 67.8901 13.5895 67.853C13.6786 67.8159 13.7646 67.7699 13.8448 67.7164C13.9264 67.6615 14.0021 67.6007 14.0704 67.5324C14.1402 67.4626 14.2011 67.3869 14.256 67.3068C14.3094 67.2251 14.3554 67.139 14.3925 67.05C14.4296 66.9609 14.4579 66.8674 14.4771 66.7724C14.4964 66.6759 14.5068 66.5794 14.5068 66.4829C14.5068 66.385 14.4964 66.2886 14.4771 66.192Z" fill="black"/>
<path d="M30.4313 61.7537C30.412 61.6587 30.3838 61.5652 30.3467 61.4761C30.3096 61.3871 30.2635 61.301 30.2101 61.2193C30.1552 61.1392 30.0928 61.062 30.0246 60.9937C29.9563 60.9254 29.8806 60.8631 29.7989 60.8097C29.7188 60.7562 29.6327 60.7102 29.5436 60.6731C29.4531 60.636 29.3596 60.6078 29.266 60.5885C29.0746 60.5499 28.8771 60.5499 28.6856 60.5885C28.5906 60.6078 28.4971 60.636 28.4081 60.6731C28.3175 60.7102 28.2314 60.7562 28.1513 60.8097C28.0696 60.8631 27.9939 60.9254 27.9256 60.9937C27.8574 61.062 27.795 61.1392 27.7416 61.2193C27.6881 61.301 27.6421 61.3871 27.605 61.4761C27.5679 61.5652 27.5397 61.6587 27.5204 61.7537C27.5011 61.8502 27.4907 61.9467 27.4907 62.0432C27.4907 62.1411 27.5011 62.2376 27.5204 62.3341C27.5397 62.4291 27.5679 62.5226 27.605 62.6117C27.6421 62.7008 27.6881 62.7868 27.7416 62.8685C27.795 62.9486 27.8574 63.0258 27.9256 63.0941C27.9939 63.1624 28.0696 63.2232 28.1513 63.2782C28.2314 63.3316 28.3175 63.3776 28.4081 63.4147C28.4971 63.4518 28.5906 63.48 28.6856 63.4993C28.7806 63.5186 28.8786 63.529 28.9751 63.529C29.0716 63.529 29.1696 63.5186 29.266 63.4993C29.3596 63.48 29.4531 63.4518 29.5436 63.4147C29.6327 63.3776 29.7188 63.3316 29.7989 63.2782C29.8806 63.2232 29.9563 63.1624 30.0246 63.0941C30.0928 63.0258 30.1552 62.9486 30.2101 62.8685C30.2635 62.7868 30.3096 62.7008 30.3467 62.6117C30.3838 62.5226 30.412 62.4291 30.4313 62.3341C30.4506 62.2376 30.4595 62.1411 30.4595 62.0432C30.4595 61.9467 30.4506 61.8502 30.4313 61.7537Z" fill="black"/>
<path d="M47.5919 66.192C47.5726 66.097 47.5444 66.0035 47.5073 65.9144C47.4702 65.8253 47.4242 65.7392 47.3707 65.6576C47.3173 65.5775 47.2549 65.5017 47.1867 65.432C47.1184 65.3637 47.0427 65.3028 46.961 65.2479C46.8809 65.1945 46.7948 65.1485 46.7042 65.1114C46.6152 65.0742 46.5217 65.046 46.4267 65.0267C46.2352 64.9882 46.0378 64.9882 45.8463 65.0267C45.7528 65.046 45.6592 65.0742 45.5687 65.1114C45.4796 65.1485 45.3935 65.1945 45.3134 65.2479C45.2317 65.3028 45.156 65.3637 45.0878 65.432C45.0195 65.5017 44.9571 65.5775 44.9022 65.6576C44.8488 65.7392 44.8028 65.8253 44.7656 65.9144C44.7285 66.0035 44.7003 66.097 44.681 66.192C44.6617 66.2885 44.6528 66.385 44.6528 66.4829C44.6528 66.5794 44.6617 66.6759 44.681 66.7724C44.7003 66.8674 44.7285 66.9609 44.7656 67.05C44.8028 67.139 44.8488 67.2251 44.9022 67.3068C44.9571 67.3869 45.0195 67.4641 45.0878 67.5324C45.156 67.6007 45.2317 67.663 45.3134 67.7164C45.3935 67.7699 45.4796 67.8159 45.5687 67.853C45.6592 67.8901 45.7528 67.9183 45.8463 67.9376C45.9428 67.9569 46.0407 67.9673 46.1372 67.9673C46.5276 67.9673 46.9106 67.8085 47.1867 67.5324C47.2549 67.4641 47.3173 67.3869 47.3707 67.3068C47.4242 67.2251 47.4702 67.139 47.5073 67.05C47.5444 66.9609 47.5726 66.8674 47.5919 66.7724C47.6112 66.6759 47.6216 66.5794 47.6216 66.4829C47.6216 66.385 47.6112 66.2885 47.5919 66.192Z" fill="black"/>
<path d="M64.4337 62.6415C64.4144 62.5465 64.3862 62.453 64.3491 62.364C64.312 62.2749 64.266 62.1873 64.2125 62.1072C64.1591 62.027 64.0967 61.9498 64.0285 61.8815C63.7509 61.6055 63.3694 61.4466 62.979 61.4466C62.5871 61.4466 62.2056 61.6055 61.9281 61.8815C61.8598 61.9498 61.7989 62.027 61.744 62.1072C61.6906 62.1873 61.6446 62.2749 61.6074 62.364C61.5703 62.453 61.5421 62.5465 61.5228 62.6415C61.5035 62.7365 61.4946 62.8345 61.4946 62.931C61.4946 63.029 61.5035 63.1255 61.5228 63.2219C61.5421 63.3169 61.5703 63.4105 61.6074 63.4995C61.6446 63.5886 61.6906 63.6747 61.744 63.7548C61.7989 63.8365 61.8598 63.9122 61.9281 63.9819C61.9978 64.0502 62.0735 64.1111 62.1537 64.166C62.2353 64.2194 62.3214 64.2655 62.4105 64.3026C62.4996 64.3397 62.5931 64.3679 62.6881 64.3872C62.7846 64.4065 62.881 64.4154 62.979 64.4154C63.3694 64.4154 63.7524 64.258 64.0285 63.9819C64.0967 63.9122 64.1591 63.8365 64.2125 63.7548C64.266 63.6747 64.312 63.5886 64.3491 63.4995C64.3862 63.409 64.4144 63.3169 64.4337 63.2219C64.453 63.1255 64.4634 63.029 64.4634 62.931C64.4634 62.8344 64.453 62.7365 64.4337 62.6415Z" fill="black"/>
<path d="M49.6642 38.3778C49.6449 38.2843 49.6167 38.1907 49.5796 38.1002C49.5425 38.0111 49.4964 37.925 49.443 37.8449C49.3881 37.7632 49.3257 37.6875 49.2575 37.6193C49.1892 37.5495 49.1135 37.4886 49.0318 37.4337C48.9517 37.3803 48.8656 37.3343 48.7765 37.2971C48.686 37.26 48.5925 37.2318 48.4989 37.2125C48.3075 37.1739 48.11 37.1739 47.9186 37.2125C47.8236 37.2318 47.73 37.26 47.641 37.2971C47.5504 37.3343 47.4643 37.3803 47.3842 37.4337C47.3025 37.4886 47.2268 37.5495 47.1586 37.6193C47.0903 37.6875 47.0279 37.7632 46.9745 37.8449C46.9211 37.925 46.875 38.0111 46.8379 38.1002C46.8008 38.1907 46.7726 38.2843 46.7533 38.3778C46.734 38.4743 46.7236 38.5722 46.7236 38.6687C46.7236 38.7652 46.734 38.8632 46.7533 38.9582C46.7726 39.0532 46.8008 39.1467 46.8379 39.2357C46.875 39.3248 46.9211 39.4124 46.9745 39.4925C47.0279 39.5742 47.0903 39.6499 47.1586 39.7182C47.2268 39.7864 47.3025 39.8488 47.3842 39.9022C47.4643 39.9557 47.5504 40.0017 47.641 40.0388C47.73 40.0759 47.8236 40.1041 47.9186 40.1234C48.0136 40.1427 48.1115 40.1531 48.208 40.1531C48.3045 40.1531 48.4025 40.1427 48.4989 40.1234C48.5925 40.1041 48.686 40.0759 48.7765 40.0388C48.8656 40.0017 48.9517 39.9557 49.0318 39.9022C49.1135 39.8488 49.1892 39.7864 49.2575 39.7182C49.3257 39.6499 49.3881 39.5742 49.443 39.4925C49.4964 39.4124 49.5425 39.3248 49.5796 39.2357C49.6167 39.1467 49.6449 39.0532 49.6642 38.9582C49.6835 38.8632 49.6924 38.7652 49.6924 38.6687C49.6924 38.5722 49.6835 38.4743 49.6642 38.3778Z" fill="black"/>
<path d="M30.2828 36.3562C30.2635 36.2612 30.2353 36.1677 30.1982 36.0786C30.1611 35.9896 30.1151 35.9035 30.0616 35.8218C30.0082 35.7417 29.9459 35.6645 29.8776 35.5962C29.8093 35.5279 29.7321 35.4656 29.652 35.4121C29.5703 35.3587 29.4842 35.3127 29.3952 35.2756C29.3061 35.2385 29.2126 35.2103 29.1176 35.191C28.9261 35.1524 28.7287 35.1524 28.5372 35.191C28.4422 35.2103 28.3487 35.2385 28.2596 35.2756C28.1705 35.3127 28.0845 35.3587 28.0028 35.4121C27.9227 35.4656 27.847 35.5279 27.7772 35.5962C27.7089 35.6645 27.648 35.7417 27.5931 35.8218C27.5397 35.9035 27.4937 35.9896 27.4566 36.0786C27.4195 36.1677 27.3912 36.2612 27.372 36.3562C27.3527 36.4527 27.3438 36.5492 27.3438 36.6471C27.3438 36.7436 27.3527 36.8401 27.372 36.9366C27.3912 37.0316 27.4195 37.1251 27.4566 37.2142C27.4937 37.3032 27.5397 37.3893 27.5931 37.471C27.648 37.5511 27.7089 37.6268 27.7772 37.6966C27.847 37.7649 27.9227 37.8257 28.0028 37.8806C28.0845 37.9341 28.1705 37.9801 28.2596 38.0172C28.3487 38.0543 28.4422 38.0825 28.5372 38.1018C28.6337 38.1211 28.7302 38.1315 28.8281 38.1315C28.9246 38.1315 29.0226 38.1211 29.1176 38.1018C29.2126 38.0825 29.3061 38.0543 29.3952 38.0172C29.4842 37.9801 29.5703 37.9341 29.652 37.8806C29.7321 37.8257 29.8093 37.7649 29.8776 37.6966C29.9459 37.6268 30.0067 37.5511 30.0616 37.471C30.1151 37.3893 30.1611 37.3032 30.1982 37.2142C30.2353 37.1251 30.2635 37.0316 30.2828 36.9366C30.3021 36.8401 30.311 36.7436 30.311 36.6471C30.311 36.549 30.3021 36.4525 30.2828 36.3562Z" fill="black"/>
</svg>
