<svg width="51" height="67" viewBox="0 0 51 67" fill="none" xmlns="http://www.w3.org/2000/svg">
<path d="M25.3534 31.7796C33.9564 31.7796 40.9556 24.6857 40.9556 15.9649C40.9556 7.24409 33.9564 0.151855 25.3534 0.151855C16.7505 0.151855 9.74976 7.24569 9.74976 15.9649C9.74976 24.6842 16.749 31.7796 25.3534 31.7796ZM25.3534 5.24617C31.1856 5.24617 35.9292 10.0539 35.9292 15.9649C35.9292 21.8759 31.1856 26.6853 25.3534 26.6853C19.5213 26.6853 14.7761 21.8759 14.7761 15.9649C14.7761 10.0539 19.5213 5.24617 25.3534 5.24617Z" fill="black"/>
<path d="M15.602 66.2218H35.1027C43.7056 66.2218 50.7048 59.1279 50.7048 50.4087C50.7048 41.6895 43.7056 34.5956 35.1027 34.5956H15.602C6.99911 34.5956 -8.39233e-05 41.6895 -8.39233e-05 50.4087C-8.39233e-05 59.1279 6.99911 66.2218 15.602 66.2218ZM35.1027 39.69C40.9349 39.69 45.6785 44.4977 45.6785 50.4087C45.6785 56.3197 40.9349 61.1275 35.1027 61.1275H15.602C9.76989 61.1275 5.02627 56.3197 5.02627 50.4087C5.02627 44.4977 9.76989 39.69 15.602 39.69H35.1027Z" fill="black"/>
</svg>
