<svg width="206" height="44" viewBox="0 0 206 44" fill="none" xmlns="http://www.w3.org/2000/svg">
<path fill-rule="evenodd" clip-rule="evenodd" d="M20.0467 18.0279V19.4693H17.356C17.1952 19.4693 17 19.6686 17 19.9264V22.7033C17 22.9345 17.1388 23.1605 17.3958 23.1605H20.0467V30.4728C20.0467 30.7348 20.191 31 20.4027 31H23.9638C24.2114 31 24.3596 30.8052 24.3596 30.5783V23.1605H27.4855C27.7796 23.1605 27.8813 22.9002 27.8813 22.633V19.9964C27.8813 19.7127 27.756 19.4689 27.4461 19.4689H24.36V17.7112C24.36 16.4481 25.141 16.5844 25.7674 16.501C27.0034 16.3364 28 16.8054 28 16.0236V13.4571C28 13.2028 27.8415 13 27.5648 13H24.8335C24.3486 13.02 23.896 13.0609 23.5282 13.1401C23.0196 13.2497 23.0267 13.2781 22.5954 13.4364C22.4523 13.489 22.3135 13.5692 22.185 13.6344C21.8763 13.7906 21.3678 14.1899 21.1541 14.441C20.2079 15.5528 20.0467 16.543 20.0467 18.0279Z" fill="#1778F2"/>
<path fill-rule="evenodd" clip-rule="evenodd" d="M93.2463 16.3611C93.3244 16.474 93.5741 16.6332 93.7023 16.7345C93.874 16.8713 94.0162 16.9722 94.182 17.1049C94.4721 17.3367 96.9241 19.2574 97.025 19.2883C97.3469 18.5306 97.2366 18.6158 97.7222 17.8236C97.8733 17.5774 97.9988 17.4084 98.1634 17.1874C98.7386 16.4135 99.7245 15.6423 100.57 15.2263C102.78 14.1381 105.754 14.343 107.667 16.0145L107.972 16.2759L111.213 13.05C111.128 12.928 110.887 12.7299 110.764 12.6339C110.319 12.2856 110.054 12.056 109.538 11.7328C108.692 11.2041 107.909 10.837 106.891 10.5222C106.451 10.3864 106.018 10.2783 105.517 10.1945C105.109 10.1263 104.786 10.0833 104.37 10.0649C104.239 10.0591 104.124 10.0187 104 10.0093C103.748 9.99003 103.411 10.0066 103.15 10.0071L102.377 10.0846C101.505 10.199 101.029 10.2689 100.22 10.5079C99.998 10.5733 99.79 10.6433 99.5819 10.7208C98.8507 10.9939 97.9464 11.4252 97.3093 11.8511C96.9138 12.1156 96.1803 12.6277 95.8409 12.9639C95.6885 13.115 95.5544 13.2231 95.402 13.3755C95.1106 13.6669 94.8631 13.9543 94.5954 14.2704L93.8772 15.2541C93.7763 15.4061 93.3087 16.1808 93.2468 16.3606L93.2463 16.3611Z" fill="#EA4335"/>
<path fill-rule="evenodd" clip-rule="evenodd" d="M93.2488 26.7125C93.277 26.8049 93.329 26.9008 93.3756 26.9869C93.6128 27.4263 94.0697 28.158 94.3809 28.5341C95.0274 29.3161 95.096 29.4151 95.7985 30.0657L96.7132 30.8247C96.8822 30.9436 97.0396 31.0521 97.218 31.1709C97.5538 31.3951 97.9179 31.6121 98.2918 31.7986C99.8229 32.5617 100.907 32.8235 102.578 33.014C102.689 33.0266 102.85 33.0244 102.977 33.04C103.125 33.0584 103.124 33.0956 103.349 33.0943C103.491 33.0934 103.634 33.0961 103.776 33.0947C103.952 33.0934 103.988 33.0544 104.118 33.04C105.255 32.9136 105.415 32.9804 106.713 32.6572C107.3 32.511 108.283 32.1514 108.861 31.8559C109.305 31.6291 109.78 31.3372 110.184 31.0516L110.773 30.5916C110.872 30.506 111.046 30.3827 111.122 30.2858C111.055 30.1356 107.906 27.8163 107.489 27.4213C106.767 27.8132 106.927 27.78 106.149 28.0939C104.888 28.6027 103.03 28.6642 101.716 28.2889C101.05 28.0984 100.526 27.8621 99.952 27.5011L99.4925 27.1949C98.7805 26.6843 98.1317 25.9256 97.6717 25.1872C97.5162 24.9375 97.092 24.0941 97.0252 23.7875C96.8894 23.8476 96.2482 24.3757 96.0698 24.5093L93.2492 26.7129L93.2488 26.7125Z" fill="#34A853"/>
<path fill-rule="evenodd" clip-rule="evenodd" d="M107.488 27.4213C107.906 27.8159 111.055 30.1356 111.122 30.2858C111.251 30.1944 111.453 29.9662 111.58 29.8393L112.007 29.3587C112.908 28.2867 113.515 27.1344 113.959 25.8086C114.188 25.128 114.349 24.3273 114.454 23.5808C114.477 23.4221 114.487 23.3302 114.496 23.1683C114.501 23.0594 114.514 22.8495 114.531 22.7213C114.659 21.7461 114.544 21.0952 114.465 20.1621C114.451 19.9909 114.379 19.4798 114.324 19.3672H103.519C103.478 19.5587 103.558 23.08 103.517 23.709C103.502 23.939 103.398 23.8767 104.313 23.8767C106.128 23.8767 107.943 23.8767 109.758 23.8767C109.758 24.1946 109.544 24.7658 109.446 25.011C109.309 25.3571 109.137 25.6575 108.941 25.9526C108.635 26.413 108.32 26.7479 107.907 27.1012C107.77 27.2182 107.624 27.307 107.488 27.4218V27.4213Z" fill="#4285F4"/>
<path fill-rule="evenodd" clip-rule="evenodd" d="M93.2487 26.7125L96.0693 24.5089C96.2477 24.3753 96.8888 23.8471 97.0247 23.787C96.9825 23.6176 96.9247 23.4777 96.8772 23.2862C96.722 22.6621 96.6562 22.2546 96.6562 21.5507C96.6562 21.0983 96.6795 20.732 96.7579 20.3478C96.7996 20.1451 96.8243 20.0007 96.8718 19.8093C96.9225 19.6057 96.979 19.465 97.0251 19.2883C96.9243 19.2569 94.4722 17.3362 94.1822 17.1049C94.0163 16.9722 93.8741 16.8713 93.7024 16.7345C93.5742 16.6332 93.3245 16.474 93.2465 16.3611C93.1357 16.5189 93.077 16.7 92.9882 16.8901C92.7466 17.4075 92.504 18.1101 92.3623 18.6745C91.7382 21.1557 91.9315 23.5593 92.8564 25.8898C92.9286 26.0718 93.1604 26.5959 93.2491 26.7121L93.2487 26.7125Z" fill="#FBBC05"/>
<g clip-path="url(#clip0_9_278)">
<path d="M188.389 10C187.141 10.0886 185.682 10.9075 184.832 11.9739C184.056 12.9414 183.418 14.3786 183.667 15.775C185.031 15.8186 186.44 14.98 187.257 13.8953C188.021 12.8856 188.599 11.4578 188.39 10H188.389Z" fill="black"/>
<path d="M193.322 18.0517C192.124 16.5114 190.439 15.617 188.849 15.617C186.749 15.617 185.861 16.6473 184.401 16.6473C182.942 16.6473 181.754 15.6198 179.938 15.6198C178.122 15.6198 176.255 16.7373 175.05 18.6484C173.357 21.34 173.647 26.3992 176.391 30.7089C177.373 32.2511 178.684 33.985 180.399 34C181.926 34.015 182.356 32.9964 184.424 32.9861C186.492 32.9739 186.884 34.0136 188.407 33.9972C190.124 33.9836 191.507 32.0622 192.489 30.52C193.192 29.4147 193.454 28.8578 194 27.61C190.03 26.0603 189.393 20.2736 193.323 18.0522L193.322 18.0517Z" fill="black"/>
</g>
<rect x="0.5" y="0.5" width="43" height="43" rx="10.5" stroke="black"/>
<rect x="81.5" y="0.5" width="43" height="43" rx="10.5" stroke="black"/>
<rect x="162.5" y="0.5" width="43" height="43" rx="10.5" stroke="black"/>
<defs>
<clipPath id="clip0_9_278">
<rect width="20" height="24" fill="white" transform="translate(174 10)"/>
</clipPath>
</defs>
</svg>
