<svg width="62" height="62" viewBox="0 0 62 62" fill="none" xmlns="http://www.w3.org/2000/svg">
<path d="M4.59694 8.31665C4.59694 3.72579 8.30193 0 12.8701 0C17.437 0 21.142 3.72445 21.142 8.31665C21.142 12.9115 17.437 16.636 12.8701 16.636C8.30193 16.6346 4.59694 12.9115 4.59694 8.31665ZM42.1098 8.31665C42.1098 3.72579 45.8188 0 50.3856 0C54.9525 0 58.6588 3.72445 58.6588 8.31665C58.6588 12.9115 54.9538 16.636 50.3856 16.636C45.8201 16.6346 42.1098 12.9115 42.1098 8.31665ZM61.67 42.3799C56.5428 54.299 44.5353 62 31.0789 62C17.3356 62 5.25735 54.2601 0.307584 42.2807C-0.540948 40.2286 0.426325 37.8735 2.46894 37.0206C2.97059 36.8127 3.49091 36.7134 4.00323 36.7134C5.57222 36.7134 7.06115 37.6469 7.70022 39.1959C11.4052 48.1617 20.5816 53.9543 31.0789 53.9543C41.3386 53.9543 50.4617 48.1577 54.3214 39.1852C55.1993 37.1453 57.5554 36.2051 59.5821 37.0903C61.614 37.9714 62.5479 40.34 61.67 42.3799Z" fill="black"/>
</svg>
